<svg id="visual" viewBox="0 0 960 540" width="960" height="540" xmlns="http://www.w3.org/2000/svg" xmlns:xlink="http://www.w3.org/1999/xlink" version="1.1"><rect x="0" y="0" width="960" height="540" fill="#5caefc"></rect><path d="M0 398L22.8 392C45.7 386 91.3 374 137 373C182.7 372 228.3 382 274 381.8C319.7 381.7 365.3 371.3 411.2 372.2C457 373 503 385 548.8 385C594.7 385 640.3 373 686 373.5C731.7 374 777.3 387 823 384.5C868.7 382 914.3 364 937.2 355L960 346L960 541L937.2 541C914.3 541 868.7 541 823 541C777.3 541 731.7 541 686 541C640.3 541 594.7 541 548.8 541C503 541 457 541 411.2 541C365.3 541 319.7 541 274 541C228.3 541 182.7 541 137 541C91.3 541 45.7 541 22.8 541L0 541Z" fill="#92d2e9"></path><path d="M0 368L22.8 375.8C45.7 383.7 91.3 399.3 137 400.7C182.7 402 228.3 389 274 390.3C319.7 391.7 365.3 407.3 411.2 407.8C457 408.3 503 393.7 548.8 384.7C594.7 375.7 640.3 372.3 686 378C731.7 383.7 777.3 398.3 823 403C868.7 407.7 914.3 402.3 937.2 399.7L960 397L960 541L937.2 541C914.3 541 868.7 541 823 541C777.3 541 731.7 541 686 541C640.3 541 594.7 541 548.8 541C503 541 457 541 411.2 541C365.3 541 319.7 541 274 541C228.3 541 182.7 541 137 541C91.3 541 45.7 541 22.8 541L0 541Z" fill="#6abce3"></path><path d="M0 408L22.8 415.8C45.7 423.7 91.3 439.3 137 439.5C182.7 439.7 228.3 424.3 274 420.8C319.7 417.3 365.3 425.7 411.2 430.5C457 435.3 503 436.7 548.8 431.2C594.7 425.7 640.3 413.3 686 409.2C731.7 405 777.3 409 823 414C868.7 419 914.3 425 937.2 428L960 431L960 541L937.2 541C914.3 541 868.7 541 823 541C777.3 541 731.7 541 686 541C640.3 541 594.7 541 548.8 541C503 541 457 541 411.2 541C365.3 541 319.7 541 274 541C228.3 541 182.7 541 137 541C91.3 541 45.7 541 22.8 541L0 541Z" fill="#44a5de"></path><path d="M0 464L22.8 463.3C45.7 462.7 91.3 461.3 137 457.8C182.7 454.3 228.3 448.7 274 451.8C319.7 455 365.3 467 411.2 470C457 473 503 467 548.8 461C594.7 455 640.3 449 686 445.8C731.7 442.7 777.3 442.3 823 446.2C868.7 450 914.3 458 937.2 462L960 466L960 541L937.2 541C914.3 541 868.7 541 823 541C777.3 541 731.7 541 686 541C640.3 541 594.7 541 548.8 541C503 541 457 541 411.2 541C365.3 541 319.7 541 274 541C228.3 541 182.7 541 137 541C91.3 541 45.7 541 22.8 541L0 541Z" fill="#218dd7"></path><path d="M0 476L22.8 482.7C45.7 489.3 91.3 502.7 137 504C182.7 505.3 228.3 494.7 274 488C319.7 481.3 365.3 478.7 411.2 482.2C457 485.7 503 495.3 548.8 497.5C594.7 499.7 640.3 494.3 686 494.3C731.7 494.3 777.3 499.7 823 499.5C868.7 499.3 914.3 493.7 937.2 490.8L960 488L960 541L937.2 541C914.3 541 868.7 541 823 541C777.3 541 731.7 541 686 541C640.3 541 594.7 541 548.8 541C503 541 457 541 411.2 541C365.3 541 319.7 541 274 541C228.3 541 182.7 541 137 541C91.3 541 45.7 541 22.8 541L0 541Z" fill="#1174cd"></path></svg>