<svg id="visual" viewBox="0 0 960 540" width="960" height="540" xmlns="http://www.w3.org/2000/svg" xmlns:xlink="http://www.w3.org/1999/xlink" version="1.1"><rect x="0" y="0" width="960" height="540" fill="#3cc3de"></rect><path d="M0 384L12.3 387.5C24.7 391 49.3 398 74 401.8C98.7 405.7 123.3 406.3 148 401.5C172.7 396.7 197.3 386.3 221.8 384.7C246.3 383 270.7 390 295.2 392.2C319.7 394.3 344.3 391.7 369 388.2C393.7 384.7 418.3 380.3 443 382.3C467.7 384.3 492.3 392.7 517 398C541.7 403.3 566.3 405.7 591 402.7C615.7 399.7 640.3 391.3 664.8 384C689.3 376.7 713.7 370.3 738.2 370C762.7 369.7 787.3 375.3 812 382.8C836.7 390.3 861.3 399.7 886 401C910.7 402.3 935.3 395.7 947.7 392.3L960 389L960 541L947.7 541C935.3 541 910.7 541 886 541C861.3 541 836.7 541 812 541C787.3 541 762.7 541 738.2 541C713.7 541 689.3 541 664.8 541C640.3 541 615.7 541 591 541C566.3 541 541.7 541 517 541C492.3 541 467.7 541 443 541C418.3 541 393.7 541 369 541C344.3 541 319.7 541 295.2 541C270.7 541 246.3 541 221.8 541C197.3 541 172.7 541 148 541C123.3 541 98.7 541 74 541C49.3 541 24.7 541 12.3 541L0 541Z" fill="#69faef"></path><path d="M0 421L12.3 420.2C24.7 419.3 49.3 417.7 74 415.2C98.7 412.7 123.3 409.3 148 409.2C172.7 409 197.3 412 221.8 416.2C246.3 420.3 270.7 425.7 295.2 426.3C319.7 427 344.3 423 369 419.3C393.7 415.7 418.3 412.3 443 412C467.7 411.7 492.3 414.3 517 419.3C541.7 424.3 566.3 431.7 591 434.2C615.7 436.7 640.3 434.3 664.8 432.8C689.3 431.3 713.7 430.7 738.2 426.7C762.7 422.7 787.3 415.3 812 413.8C836.7 412.3 861.3 416.7 886 416C910.7 415.3 935.3 409.7 947.7 406.8L960 404L960 541L947.7 541C935.3 541 910.7 541 886 541C861.3 541 836.7 541 812 541C787.3 541 762.7 541 738.2 541C713.7 541 689.3 541 664.8 541C640.3 541 615.7 541 591 541C566.3 541 541.7 541 517 541C492.3 541 467.7 541 443 541C418.3 541 393.7 541 369 541C344.3 541 319.7 541 295.2 541C270.7 541 246.3 541 221.8 541C197.3 541 172.7 541 148 541C123.3 541 98.7 541 74 541C49.3 541 24.7 541 12.3 541L0 541Z" fill="#39dae8"></path><path d="M0 464L12.3 464C24.7 464 49.3 464 74 459.7C98.7 455.3 123.3 446.7 148 443C172.7 439.3 197.3 440.7 221.8 441C246.3 441.3 270.7 440.7 295.2 443.7C319.7 446.7 344.3 453.3 369 455.3C393.7 457.3 418.3 454.7 443 452.7C467.7 450.7 492.3 449.3 517 447.2C541.7 445 566.3 442 591 443.2C615.7 444.3 640.3 449.7 664.8 449.5C689.3 449.3 713.7 443.7 738.2 442C762.7 440.3 787.3 442.7 812 444.3C836.7 446 861.3 447 886 448C910.7 449 935.3 450 947.7 450.5L960 451L960 541L947.7 541C935.3 541 910.7 541 886 541C861.3 541 836.7 541 812 541C787.3 541 762.7 541 738.2 541C713.7 541 689.3 541 664.8 541C640.3 541 615.7 541 591 541C566.3 541 541.7 541 517 541C492.3 541 467.7 541 443 541C418.3 541 393.7 541 369 541C344.3 541 319.7 541 295.2 541C270.7 541 246.3 541 221.8 541C197.3 541 172.7 541 148 541C123.3 541 98.7 541 74 541C49.3 541 24.7 541 12.3 541L0 541Z" fill="#19b9db"></path><path d="M0 480L12.3 479.5C24.7 479 49.3 478 74 478.3C98.7 478.7 123.3 480.3 148 482.2C172.7 484 197.3 486 221.8 487.8C246.3 489.7 270.7 491.3 295.2 491C319.7 490.7 344.3 488.3 369 487.3C393.7 486.3 418.3 486.7 443 486.7C467.7 486.7 492.3 486.3 517 485.5C541.7 484.7 566.3 483.3 591 482C615.7 480.7 640.3 479.3 664.8 479.7C689.3 480 713.7 482 738.2 484.7C762.7 487.3 787.3 490.7 812 492.2C836.7 493.7 861.3 493.3 886 491C910.7 488.7 935.3 484.3 947.7 482.2L960 480L960 541L947.7 541C935.3 541 910.7 541 886 541C861.3 541 836.7 541 812 541C787.3 541 762.7 541 738.2 541C713.7 541 689.3 541 664.8 541C640.3 541 615.7 541 591 541C566.3 541 541.7 541 517 541C492.3 541 467.7 541 443 541C418.3 541 393.7 541 369 541C344.3 541 319.7 541 295.2 541C270.7 541 246.3 541 221.8 541C197.3 541 172.7 541 148 541C123.3 541 98.7 541 74 541C49.3 541 24.7 541 12.3 541L0 541Z" fill="#2498c7"></path></svg>